<?xml version="1.0" encoding="UTF-8" standalone="no"?>
<svg width="1280px" height="768px" viewBox="0 0 1280 768" version="1.1" xmlns="http://www.w3.org/2000/svg" xmlns:xlink="http://www.w3.org/1999/xlink">
    <g id="Page-1" stroke="none" stroke-width="1" fill="none" fill-rule="evenodd">
        <polygon id="Star-1" fill="#F8E81C" transform="translate(107.500000, 63.500000) rotate(-330.000000) translate(-107.500000, -63.500000) " points="107.499999 77.25 91.3359069 85.7479683 94.4229731 67.7489842 81.3459456 55.0020333 99.4179554 52.3760144 107.5 36 115.58205 52.3760185 133.654059 55.0020464 120.577026 67.7489876 123.664093 85.7479687 "></polygon>
        <polygon id="Star-1" fill="#F8E81C" transform="translate(34.500000, 51.500000) rotate(-330.000000) translate(-34.500000, -51.500000) " points="34.4999992 70.75 11.8702696 82.6471556 16.1921623 57.4485779 -2.11567615 39.6028466 23.1851375 35.9264202 34.5000005 13 45.8148703 35.9264259 71.1156821 39.6028649 52.8078361 57.4485827 57.1297297 82.6471561 "></polygon>
        <polygon id="Star-1" fill="#F8E81C" transform="translate(52.500000, 118.500000) rotate(-345.000000) translate(-52.500000, -118.500000) " points="52.4999994 132.25 36.3359069 140.747968 39.4229731 122.748984 26.3459456 110.002033 44.4179554 107.376014 52.5000003 91 60.5820502 107.376018 78.6540586 110.002046 65.5770258 122.748988 68.6640926 140.747969 "></polygon>
        <polygon id="Star-1" fill="#F8E81C" transform="translate(1244.500000, 638.500000) rotate(-330.000000) translate(-1244.500000, -638.500000) " points="1244.5 652.25 1228.33591 660.747968 1231.42297 642.748984 1218.34595 630.002033 1236.41796 627.376014 1244.5 611 1252.58205 627.376018 1270.65406 630.002046 1257.57703 642.748988 1260.66409 660.747969 "></polygon>
        <polygon id="Star-1" fill="#F8E81C" transform="translate(1162.500000, 669.500000) rotate(-330.000000) translate(-1162.500000, -669.500000) " points="1162.5 688.75 1139.87027 700.647156 1144.19216 675.448578 1125.88432 657.602847 1151.18514 653.92642 1162.5 631 1173.81487 653.926426 1199.11568 657.602865 1180.80784 675.448583 1185.12973 700.647156 "></polygon>
        <polygon id="Star-1" fill="#F8E81C" transform="translate(1228.500000, 707.500000) rotate(-345.000000) translate(-1228.500000, -707.500000) " points="1228.5 721.25 1212.33591 729.747968 1215.42297 711.748984 1202.34595 699.002033 1220.41796 696.376014 1228.5 680 1236.58205 696.376018 1254.65406 699.002046 1241.57703 711.748988 1244.66409 729.747969 "></polygon>
    </g>
</svg>